<svg xmlns="http://www.w3.org/2000/svg" viewBox="0 0 1512 120" preserveAspectRatio="none">
	<defs>
		<linearGradient id="g" x1="0" y1="1" x2="1" y2="0">
			<stop offset="0" stop-color="#e9446a"/>
			<stop offset="1" stop-color="#3e3c90"/>
		</linearGradient>
	</defs>
	<path d="M 0.00 120.00 L 0.00 42.00 C 28.00 47.50, 112.00 65.83, 168.00 75.00 C 224.00 84.17, 280.00 92.00, 336.00 97.00 C 392.00 102.00, 448.00 106.50, 504.00 105.00 C 560.00 103.50, 616.17 95.67, 672.00 88.00 C 727.83 80.33, 783.17 67.00, 839.00 59.00 C 894.83 51.00, 951.00 43.83, 1007.00 40.00 C 1063.00 36.17, 1119.00 34.83, 1175.00 36.00 C 1231.00 37.17, 1287.00 41.50, 1343.00 47.00 C 1399.00 52.50, 1483.00 65.33, 1511.00 69.00 L 1511.00 120.00 Z" fill="url(#g)" fill-opacity="0.1490"/>
	<path d="M 0.00 120.00 L 0.00 28.00 C 28.00 33.50, 112.00 51.83, 168.00 61.00 C 224.00 70.17, 280.00 78.00, 336.00 83.00 C 392.00 88.00, 448.00 92.50, 504.00 91.00 C 560.00 89.50, 616.17 81.67, 672.00 74.00 C 727.83 66.33, 783.17 53.00, 839.00 45.00 C 894.83 37.00, 951.00 29.83, 1007.00 26.00 C 1063.00 22.17, 1119.00 20.83, 1175.00 22.00 C 1231.00 23.17, 1287.00 27.50, 1343.00 33.00 C 1399.00 38.50, 1483.00 51.33, 1511.00 55.00 L 1511.00 120.00 Z" fill="url(#g)" fill-opacity="0.2000"/>
	<path d="M 0.00 120.00 L 0.00 71.00 C 22.83 67.83, 91.17 57.33, 137.00 52.00 C 182.83 46.67, 229.17 41.83, 275.00 39.00 C 320.83 36.17, 366.33 34.33, 412.00 35.00 C 457.67 35.67, 503.17 38.83, 549.00 43.00 C 594.83 47.17, 641.17 53.00, 687.00 60.00 C 732.83 67.00, 778.17 78.00, 824.00 85.00 C 869.83 92.00, 916.17 98.83, 962.00 102.00 C 1007.83 105.17, 1053.33 105.67, 1099.00 104.00 C 1144.67 102.33, 1190.17 97.67, 1236.00 92.00 C 1281.83 86.33, 1328.17 78.17, 1374.00 70.00 C 1419.83 61.83, 1488.17 47.50, 1511.00 43.00 L 1511.00 120.00 Z" fill="url(#g)" fill-opacity="0.2980"/>
	<path d="M 0.00 120.00 L 0.00 89.00 C 19.33 87.17, 77.33 81.33, 116.00 78.00 C 154.67 74.67, 193.17 71.17, 232.00 69.00 C 270.83 66.83, 310.17 65.67, 349.00 65.00 C 387.83 64.33, 426.33 64.00, 465.00 65.00 C 503.67 66.00, 542.33 68.33, 581.00 71.00 C 619.67 73.67, 658.17 77.00, 697.00 81.00 C 735.83 85.00, 775.17 90.83, 814.00 95.00 C 852.83 99.17, 891.33 103.33, 930.00 106.00 C 968.67 108.67, 1007.33 110.83, 1046.00 111.00 C 1084.67 111.17, 1123.17 109.00, 1162.00 107.00 C 1200.83 105.00, 1240.17 102.50, 1279.00 99.00 C 1317.83 95.50, 1356.33 90.67, 1395.00 86.00 C 1433.67 81.33, 1491.67 73.50, 1511.00 71.00 L 1511.00 120.00 Z" fill="url(#g)" fill-opacity="1.0000"/>
</svg>
